<?xml version="1.0" encoding="iso-8859-1"?>
<!-- Generator: Adobe Illustrator 19.0.0, SVG Export Plug-In . SVG Version: 6.00 Build 0)  -->
<svg version="1.1" id="Layer_1" xmlns="http://www.w3.org/2000/svg" xmlns:xlink="http://www.w3.org/1999/xlink" x="0px" y="0px"
	 viewBox="0 0 512 512" style="enable-background:new 0 0 512 512;" xml:space="preserve">
<g>
	<g>
		<path d="M437.019,74.981C388.668,26.628,324.379,0,256,0C187.62,0,123.332,26.628,74.981,74.981C26.629,123.333,0,187.62,0,256
			c0,68.38,26.628,132.668,74.981,181.019C123.333,485.371,187.62,512,256,512c68.379,0,132.668-26.628,181.019-74.981
			C485.371,388.667,512,324.38,512,256S485.372,123.332,437.019,74.981z M256,480.653C132.126,480.653,31.347,379.874,31.347,256
			S132.126,31.347,256,31.347c123.875,0,224.653,100.779,224.653,224.653S379.875,480.653,256,480.653z"/>
	</g>
</g>
<g>
	<g>
		<path d="M271.673,135.837v60.919l-125.388-72.393v263.273l125.388-72.393v60.92h94.041V135.837H271.673z M334.367,344.816H303.02
			v-83.866l-125.388,72.393V178.658L303.02,251.05v-83.867h31.347V344.816z"/>
	</g>
</g>
<g>
</g>
<g>
</g>
<g>
</g>
<g>
</g>
<g>
</g>
<g>
</g>
<g>
</g>
<g>
</g>
<g>
</g>
<g>
</g>
<g>
</g>
<g>
</g>
<g>
</g>
<g>
</g>
<g>
</g>
</svg>
